<svg t="1673322219244" class="icon" viewBox="0 0 1024 1024" version="1.1" xmlns="http://www.w3.org/2000/svg" p-id="8505"><path d="M512 877.714286c-204.8 0-365.714286-160.914286-365.714286-365.714286s160.914286-365.714286 365.714286-365.714286 365.714286 160.914286 365.714286 365.714286-160.914286 365.714286-365.714286 365.714286M512 0C226.742857 0 0 226.742857 0 512s226.742857 512 512 512 512-226.742857 512-512-226.742857-512-512-512m0 365.714286c-80.457143 0-146.285714 65.828571-146.285714 146.285714s65.828571 146.285714 146.285714 146.285714 146.285714-65.828571 146.285714-146.285714-65.828571-146.285714-146.285714-146.285714" p-id="8506"></path></svg>