<svg t="1673322814403" class="icon" viewBox="0 0 1025 1024" version="1.1" xmlns="http://www.w3.org/2000/svg" p-id="29295"><path d="M664.065 112c34.277 0 62.065 27.79 62.065 62.069v206.897c0 34.28-27.788 62.068-62.065 62.068H544.532v39.08h169.241c52.66 0 95.397 42.397 96.247 94.957l0.012 1.596v68.965h83.903c34.278 0 62.065 27.79 62.065 62.07V849.93c0 34.28-27.787 62.069-62.065 62.069H666.364c-34.278 0-62.065-27.79-62.065-62.069v-140.23c0-34.28 27.787-62.069 62.065-62.069h83.902v-68.965c0-20.098-15.975-36.385-35.767-36.775l-0.726-0.007H313.227c-19.883 0-36.098 16.045-36.486 36.048l-0.007 0.734-0.001 68.965h83.903c34.278 0 62.065 27.79 62.065 62.07V849.93c0 34.28-27.787 62.069-62.065 62.069H133.065C98.787 912 71 884.21 71 849.931v-140.23c0-34.28 27.787-62.069 62.065-62.069h83.902v-68.965c0-52.763 42.211-95.686 94.667-96.54l1.593-0.012 171.539-0.001v-39.08H346.844c-34.277 0-62.065-27.789-62.065-62.068V174.069c0-34.28 27.788-62.069 62.065-62.069h317.22z" p-id="29296"></path></svg>